 <svg version="1.0" xmlns="http://www.w3.org/2000/svg"  width="300.000000pt" height="441.000000pt" viewBox="0 0 300.000000 441.000000"  preserveAspectRatio="xMidYMid meet">  <g transform="translate(0.000000,441.000000) scale(0.100000,-0.100000)" fill="#000000" stroke="none"> <path d="M1990 3537 c-62 -58 -94 -87 -293 -267 -76 -69 -142 -126 -145 -128 -4 -1 -7 94 -7 210 0 206 -1 213 -20 213 -20 0 -20 -8 -25 -482 l-5 -481 -210 239 c-115 132 -216 248 -223 257 -9 12 -15 13 -24 4 -14 -14 -16 -12 252 -317 l210 -240 0 -260 0 -260 25 -1 25 -2 0 537 1 536 250 225 c138 124 255 230 260 236 6 7 5 15 -4 22 -9 8 -26 -2 -67 -41z"></path> <path d="M1092 1588 c5 -499 6 -506 69 -602 79 -119 235 -176 417 -154 187 23 308 142 332 329 5 41 10 255 10 477 l0 402 -25 0 -24 0 -3 -457 -3 -458 -26 -55 c-37 -80 -81 -125 -157 -162 -63 -31 -73 -33 -177 -33 -100 0 -116 3 -170 28 -84 39 -146 108 -173 192 -21 63 -22 82 -22 505 l0 440 -26 0 -26 0 4 -452z"></path> </g> </svg>
